<svg width="195" height="167" viewBox="0 0 195 167" fill="none" xmlns="http://www.w3.org/2000/svg">
<path opacity="0.4" d="M124.998 107.739C120.32 106.339 115.391 101.806 110.21 94.1388C105.232 86.3628 104.283 77.3292 107.363 67.0381C110.444 56.747 117.087 48.4569 127.295 42.1678C137.502 35.8787 147.907 34.321 158.51 37.4946C169.113 40.6681 176.935 46.3222 181.975 54.4568C187.016 62.5914 187.949 71.9602 184.776 82.5631C181.649 93.0102 175.529 103.241 166.415 113.255C157.457 123.316 146.745 131.578 134.277 138.04C121.965 144.548 110.018 147.853 98.435 147.954C94.0202 143.404 92.4424 138.175 93.7014 132.266C100.824 129.471 107.47 125.429 113.641 120.14C120.013 114.742 123.799 110.608 124.998 107.739ZM41.0316 82.6073C36.5098 81.2539 31.6585 76.7437 26.4779 69.0769C21.4999 61.3009 20.551 52.2673 23.6313 41.9762C26.7582 31.5291 33.4019 23.2391 43.5625 17.1059C53.7697 10.8168 64.1748 9.25908 74.7777 12.4327C85.3807 15.6062 93.1245 21.237 98.0092 29.3249C103.05 37.4595 103.983 46.8283 100.81 57.4312C97.6828 67.8783 91.5625 78.1089 82.4489 88.1232C73.4913 98.1842 62.7786 106.446 50.311 112.908C37.9993 119.416 26.052 122.721 14.4689 122.822C10.1009 118.117 8.52302 112.887 9.73537 107.134C17.014 104.386 23.7384 100.367 29.9085 95.0782C36.0787 89.7895 39.7864 85.6325 41.0316 82.6073Z" fill="#FFC700"/>
</svg>
