<svg display="none" xmlns="http://www.w3.org/2000/svg">
	<symbol id="vk" viewBox="0 0 27 17">
		<path d="M25.89 14C24.7066 12.137 23.3215 10.4099 21.76 8.85003C21.7316 8.81456 21.7162 8.77047 21.7162 8.72503C21.7162 8.67959 21.7316 8.6355 21.76 8.60003C23.1037 6.76602 24.2912 4.82254 25.31 2.79003C25.4574 2.49919 25.5275 2.17531 25.5135 1.84956C25.4995 1.52381 25.4019 1.20714 25.23 0.930028C25.0733 0.648376 24.8443 0.413676 24.5665 0.250181C24.2887 0.0866858 23.9724 0.000326677 23.65 2.80926e-05H20.65C20.2694 0.00741492 19.8987 0.12332 19.5816 0.334121C19.2645 0.544922 19.0142 0.841857 18.86 1.19003C17.9887 3.11719 16.9444 4.9614 15.74 6.70003V1.80003C15.7414 1.56328 15.6957 1.32862 15.6057 1.10963C15.5157 0.890647 15.3832 0.691689 15.2158 0.524279C15.0484 0.356869 14.8494 0.224332 14.6304 0.134344C14.4115 0.0443549 14.1768 -0.00129827 13.94 2.80926e-05H9.56005C9.30507 0.00399251 9.05601 0.0775265 8.83977 0.212692C8.62352 0.347857 8.4483 0.539519 8.33302 0.766988C8.21775 0.994457 8.16679 1.24909 8.18565 1.50341C8.20451 1.75772 8.29247 2.00205 8.44005 2.21003L8.84005 2.77003C9.0546 3.07816 9.16976 3.44456 9.17005 3.82003V7.66003C7.84999 5.70717 6.80045 3.58455 6.05005 1.35003C5.91473 0.956273 5.6599 0.614564 5.3211 0.372561C4.98229 0.130558 4.57641 0.000325416 4.16005 2.80926e-05H1.71005C1.44973 0.00314067 1.19347 0.0649639 0.960374 0.18089C0.727274 0.296815 0.523342 0.463854 0.363778 0.669557C0.204214 0.87526 0.0931326 1.11432 0.0388118 1.36893C-0.0155091 1.62353 -0.0116681 1.88711 0.0500484 2.14003C1.40005 7.87003 4.23005 12.62 7.82005 15.14C8.0352 15.2929 8.30205 15.3545 8.56243 15.3114C8.82281 15.2683 9.0556 15.124 9.21005 14.91C9.28729 14.8032 9.34262 14.6821 9.37288 14.5537C9.40313 14.4254 9.4077 14.2923 9.38632 14.1622C9.36494 14.0321 9.31804 13.9074 9.24832 13.7955C9.17859 13.6836 9.08742 13.5866 8.98005 13.51C5.84005 11.31 3.34005 7.12003 2.07005 2.00003H4.17005C5.09028 4.79592 6.47647 7.41616 8.27005 9.75003C8.47735 10.0149 8.76284 10.2077 9.08597 10.3011C9.40911 10.3944 9.75344 10.3835 10.07 10.27C10.3949 10.1568 10.6759 9.94424 10.8733 9.66248C11.0707 9.38073 11.1745 9.04403 11.17 8.70003V3.82003C11.1722 3.18433 11.014 2.55836 10.71 2.00003H13.71V7.43003C13.7065 7.81857 13.8308 8.19749 14.064 8.50833C14.2971 8.81918 14.626 9.04467 15 9.15003C15.3629 9.27079 15.7554 9.26864 16.117 9.14391C16.4785 9.01919 16.7888 8.77884 17 8.46003C18.4204 6.43363 19.6332 4.26939 20.62 2.00003H23.42C22.4669 3.8741 21.3668 5.66972 20.13 7.37003C19.8182 7.78722 19.6668 8.30267 19.7035 8.82224C19.7402 9.34181 19.9626 9.83084 20.33 10.2C21.7886 11.6698 23.1014 13.2773 24.25 15H20.9C19.8666 13.2893 18.4788 11.8197 16.83 10.69C16.5827 10.5088 16.2894 10.4005 15.9836 10.3775C15.6778 10.3546 15.3717 10.4178 15.1 10.56C14.8207 10.703 14.5867 10.9209 14.4242 11.1894C14.2617 11.4578 14.1772 11.7662 14.18 12.08V14.46C14.1855 14.599 14.1362 14.7345 14.0426 14.8374C13.9491 14.9403 13.8189 15.0023 13.68 15.01H12.82C12.5548 15.01 12.3005 15.1154 12.1129 15.3029C11.9254 15.4905 11.82 15.7448 11.82 16.01C11.82 16.2752 11.9254 16.5296 12.1129 16.7171C12.3005 16.9047 12.5548 17.01 12.82 17.01H13.68C14.0118 17.0074 14.3398 16.9393 14.6452 16.8096C14.9506 16.6799 15.2274 16.4912 15.4597 16.2543C15.692 16.0174 15.8752 15.7369 15.9988 15.429C16.1224 15.1211 16.184 14.7918 16.18 14.46V12.69C17.383 13.5949 18.4013 14.7219 19.18 16.01C19.352 16.308 19.5978 16.5565 19.8939 16.7317C20.1899 16.9069 20.5261 17.0028 20.87 17.01H24.25C24.5957 17.0109 24.9351 16.9184 25.2326 16.7424C25.53 16.5664 25.7744 16.3134 25.94 16.01C26.1099 15.7004 26.1948 15.3513 26.186 14.9983C26.1772 14.6452 26.0751 14.3008 25.89 14Z"/>
	</symbol>

	<symbol id="inst" viewBox="0 0 28 28">
		<path d="M13.9971 0.34668C10.289 0.34668 9.82407 0.362397 8.3678 0.428842C6.91457 0.495179 5.92206 0.725949 5.05356 1.06349C4.15574 1.41241 3.39433 1.87926 2.6353 2.63828C1.87627 3.39731 1.40942 4.15872 1.0605 5.05654C0.722965 5.92499 0.492195 6.9175 0.425858 8.37073C0.359413 9.827 0.34375 10.292 0.34375 14C0.34375 17.708 0.359413 18.1729 0.425858 19.6292C0.492195 21.0824 0.722965 22.0749 1.0605 22.9434C1.40942 23.8412 1.87627 24.6026 2.6353 25.3617C3.39433 26.1207 4.15574 26.5876 5.05356 26.9365C5.92206 27.274 6.91457 27.5048 8.3678 27.5711C9.82407 27.6375 10.289 27.6533 13.9971 27.6533C17.705 27.6533 18.17 27.6375 19.6263 27.5711C21.0795 27.5048 22.072 27.274 22.9405 26.9365C23.8383 26.5876 24.5997 26.1207 25.3588 25.3617C26.1178 24.6026 26.5847 23.8412 26.9336 22.9434C27.2711 22.0749 27.5019 21.0824 27.5682 19.6292C27.6346 18.1729 27.6503 17.708 27.6503 14C27.6503 10.292 27.6346 9.827 27.5682 8.37073C27.5019 6.9175 27.2711 5.92499 26.9336 5.05654C26.5847 4.15872 26.1178 3.39731 25.3588 2.63828C24.5997 1.87926 23.8383 1.41241 22.9405 1.06349C22.072 0.725949 21.0795 0.495179 19.6263 0.428842C18.17 0.362397 17.705 0.34668 13.9971 0.34668ZM13.9971 2.80678C17.6426 2.80678 18.0745 2.82066 19.5141 2.88634C20.8453 2.9471 21.5683 3.16952 22.0494 3.35645C22.6867 3.60412 23.1415 3.90004 23.6192 4.37778C24.097 4.85553 24.3929 5.3104 24.6406 5.94765C24.8275 6.42875 25.05 7.15169 25.1107 8.48287C25.1763 9.92255 25.1903 10.3544 25.1903 14C25.1903 17.6455 25.1763 18.0774 25.1107 19.5171C25.05 20.8482 24.8275 21.5712 24.6406 22.0523C24.3929 22.6896 24.097 23.1444 23.6192 23.6222C23.1415 24.0999 22.6867 24.3958 22.0494 24.6435C21.5683 24.8305 20.8453 25.0529 19.5141 25.1136C18.0747 25.1793 17.6429 25.1932 13.9971 25.1932C10.3512 25.1932 9.91946 25.1793 8.47994 25.1136C7.14876 25.0529 6.42582 24.8305 5.94472 24.6435C5.30742 24.3958 4.8526 24.0999 4.3748 23.6222C3.89706 23.1444 3.60114 22.6896 3.35352 22.0523C3.16654 21.5712 2.94411 20.8482 2.88336 19.5171C2.81767 18.0774 2.8038 17.6455 2.8038 14C2.8038 10.3544 2.81767 9.92255 2.88336 8.48287C2.94411 7.15169 3.16654 6.42875 3.35352 5.94765C3.60114 5.3104 3.89706 4.85553 4.3748 4.37778C4.8526 3.90004 5.30742 3.60412 5.94472 3.35645C6.42582 3.16952 7.14876 2.9471 8.47994 2.88634C9.91962 2.82066 10.3515 2.80678 13.9971 2.80678Z"/>
		<path d="M13.9955 18.551C11.482 18.551 9.44442 16.5134 9.44442 13.9999C9.44442 11.4864 11.482 9.44882 13.9955 9.44882C16.509 9.44882 18.5466 11.4864 18.5466 13.9999C18.5466 16.5134 16.509 18.551 13.9955 18.551ZM13.9955 6.98877C10.1233 6.98877 6.98438 10.1277 6.98438 13.9999C6.98438 17.8721 10.1233 21.0111 13.9955 21.0111C17.8677 21.0111 21.0067 17.8721 21.0067 13.9999C21.0067 10.1277 17.8677 6.98877 13.9955 6.98877Z"/>
		<path d="M22.9252 6.71186C22.9252 7.61673 22.1917 8.35023 21.2868 8.35023C20.382 8.35023 19.6484 7.61673 19.6484 6.71186C19.6484 5.80699 20.382 5.07349 21.2868 5.07349C22.1917 5.07349 22.9252 5.80699 22.9252 6.71186Z"/>
	</symbol>

	<symbol id="facebook" viewBox="0 0 15 28">
		<path d="M13.3715 9.72398C13.3836 9.60607 13.2911 9.50357 13.1725 9.50357H9.34863V6.85034C9.34863 5.85392 10.009 5.62161 10.4742 5.62161C10.8565 5.62161 12.5467 5.62161 13.1301 5.62161C13.2406 5.62161 13.329 5.53207 13.329 5.42161V1.4404C13.329 1.33024 13.2399 1.24083 13.1298 1.2404L9.39731 1.22583C5.03275 1.22583 4.0395 4.4929 4.0395 6.58364V9.50357H1.71538C1.60492 9.50357 1.51538 9.59312 1.51538 9.70357V13.8174C1.51538 13.9278 1.60492 14.0174 1.71538 14.0174H4.0395C4.0395 19.2364 4.0395 25.4189 4.0395 26.5924C4.0395 26.7028 4.12905 26.7898 4.2395 26.7898H9.14863C9.25908 26.7898 9.34863 26.7027 9.34863 26.5922C9.34863 25.4125 9.34863 19.1769 9.34863 14.0174H12.7505C12.8531 14.0174 12.939 13.9398 12.9495 13.8378L13.3715 9.72398Z" stroke-width="2" />
	</symbol>

	<symbol id="arrow-next" viewBox="0 0 15 8">
		<path d="M14.3536 4.35355C14.5488 4.15829 14.5488 3.84171 14.3536 3.64645L11.1716 0.464466C10.9763 0.269204 10.6597 0.269204 10.4645 0.464466C10.2692 0.659728 10.2692 0.976311 10.4645 1.17157L13.2929 4L10.4645 6.82843C10.2692 7.02369 10.2692 7.34027 10.4645 7.53553C10.6597 7.7308 10.9763 7.7308 11.1716 7.53553L14.3536 4.35355ZM0 4.5H14V3.5H0V4.5Z"/>
	</symbol>

	<symbol id="play" viewBox="0 0 44 44">
		<g filter="url(#filter0_d_1_3210)">
			<path fill-rule="evenodd" clip-rule="evenodd" d="M22 40C31.9411 40 40 31.9411 40 22C40 12.0589 31.9411 4 22 4C12.0589 4 4 12.0589 4 22C4 31.9411 12.0589 40 22 40ZM18.25 29.8612L31 22.5L18.25 15.1388L18.25 29.8612Z"/>
		</g>
		<defs>
			<filter id="filter0_d_1_3210" x="0" y="0" width="44" height="44" filterUnits="userSpaceOnUse" color-interpolation-filters="sRGB">
				<feFlood flood-opacity="0" result="BackgroundImageFix" />
				<feColorMatrix in="SourceAlpha" type="matrix" values="0 0 0 0 0 0 0 0 0 0 0 0 0 0 0 0 0 0 127 0" result="hardAlpha" />
				<feOffset />
				<feGaussianBlur stdDeviation="2" />
				<feComposite in2="hardAlpha" operator="out" />
				<feColorMatrix type="matrix" values="0 0 0 0 1 0 0 0 0 0.78 0 0 0 0 0 0 0 0 1 0" />
				<feBlend mode="normal" in2="BackgroundImageFix" result="effect1_dropShadow_1_3210" />
				<feBlend mode="normal" in="SourceGraphic" in2="effect1_dropShadow_1_3210" result="shape" />
			</filter>
		</defs>
	</symbol>

	<symbol id="slider-button-prev" viewBox="0 0 25 45">
		<path d="M24 0.999998L2.49433 20.2655C1.16332 21.4579 1.16333 23.5421 2.49433 24.7345L24 44" stroke-width="2" />
	</symbol>

	<symbol id="slider-button-next" viewBox="0 0 25 45">
		<path d="M1 0.999998L22.5057 20.2655C23.8367 21.4579 23.8367 23.5421 22.5057 24.7345L0.999998 44" stroke-width="2" />
	</symbol>

	<symbol id="watch" viewBox="0 0 12 12">
		<path d="M6 11.625C4.88748 11.625 3.79995 11.2951 2.87492 10.677C1.94989 10.0589 1.22892 9.18043 0.80318 8.1526C0.377437 7.12476 0.266043 5.99376 0.483085 4.90262C0.700127 3.81148 1.23586 2.8092 2.02253 2.02253C2.8092 1.23586 3.81148 0.700127 4.90262 0.483085C5.99376 0.266043 7.12476 0.377437 8.1526 0.80318C9.18043 1.22892 10.0589 1.94989 10.677 2.87492C11.2951 3.79995 11.625 4.88748 11.625 6C11.625 7.49184 11.0324 8.92259 9.97748 9.97748C8.92259 11.0324 7.49184 11.625 6 11.625ZM6 1.125C5.03582 1.125 4.09329 1.41092 3.2916 1.94659C2.48991 2.48226 1.86507 3.24363 1.49609 4.13442C1.12711 5.02521 1.03057 6.00541 1.21867 6.95107C1.40678 7.89673 1.87108 8.76537 2.55286 9.44715C3.23464 10.1289 4.10328 10.5932 5.04894 10.7813C5.99459 10.9694 6.97479 10.8729 7.86558 10.5039C8.75637 10.1349 9.51775 9.5101 10.0534 8.70841C10.5891 7.90672 10.875 6.96419 10.875 6C10.875 4.70707 10.3614 3.4671 9.44715 2.55286C8.53291 1.63862 7.29293 1.125 6 1.125Z"/>
		<path d="M7.59001 8.1225L5.73376 6.26625C5.699 6.23121 5.6715 6.18965 5.65284 6.14397C5.63418 6.09828 5.62472 6.04935 5.62501 6V3H6.37501V5.84625L8.12251 7.59L7.59001 8.1225Z"/>
	</symbol>

	<symbol id="money" viewBox="0 0 15 15">
		<path d="M9.70012 4.41997C11.4012 4.41997 12.7801 3.92748 12.7801 3.31997C12.7801 2.71246 11.4012 2.21997 9.70012 2.21997C7.99908 2.21997 6.62012 2.71246 6.62012 3.31997C6.62012 3.92748 7.99908 4.41997 9.70012 4.41997Z" stroke="white" stroke-width="0.6" stroke-miterlimit="10" stroke-linecap="round" stroke-linejoin="round" />
		<path d="M6.62012 3.54004C6.62012 3.74068 6.62012 4.6594 6.62012 4.86004C6.62012 5.46746 7.99864 5.96004 9.70012 5.96004C11.4016 5.96004 12.7801 5.46746 12.7801 4.86004C12.7801 4.6594 12.7801 3.74068 12.7801 3.54004" stroke="white" stroke-width="0.6" stroke-miterlimit="10" stroke-linecap="round" stroke-linejoin="round" />
		<path d="M8.28125 7.37666C8.70585 7.45542 9.18853 7.50008 9.70025 7.50008C11.4017 7.50008 12.7803 7.0075 12.7803 6.40008C12.7803 6.19944 12.7803 5.28072 12.7803 5.08008" stroke="white" stroke-width="0.6" stroke-miterlimit="10" stroke-linecap="round" stroke-linejoin="round" />
		<path d="M6.62012 5.08008C6.62012 5.28072 6.62012 6.01948 6.62012 6.01948" stroke="white" stroke-width="0.6" stroke-miterlimit="10" stroke-linecap="round" stroke-linejoin="round" />
		<path d="M8.38574 8.93518C8.78438 9.0025 9.22988 9.04012 9.70024 9.04012C11.4017 9.04012 12.7802 8.54776 12.7802 7.94012C12.7802 7.73948 12.7802 6.82076 12.7802 6.62012" stroke="white" stroke-width="0.6" stroke-miterlimit="10" stroke-linecap="round" stroke-linejoin="round" />
		<path d="M8.36865 10.4724C8.77147 10.5414 9.22313 10.5802 9.70009 10.5802C11.4016 10.5802 12.7801 10.0878 12.7801 9.48016C12.7801 9.27952 12.7801 8.3608 12.7801 8.16016" stroke="white" stroke-width="0.6" stroke-miterlimit="10" stroke-linecap="round" stroke-linejoin="round" />
		<path d="M5.29973 8.15996C7.00076 8.15996 8.37973 7.66747 8.37973 7.05996C8.37973 6.45245 7.00076 5.95996 5.29973 5.95996C3.59869 5.95996 2.21973 6.45245 2.21973 7.05996C2.21973 7.66747 3.59869 8.15996 5.29973 8.15996Z" stroke="white" stroke-width="0.6" stroke-miterlimit="10" stroke-linecap="round" stroke-linejoin="round" />
		<path d="M2.21973 7.28003C2.21973 7.48067 2.21973 8.39939 2.21973 8.60003C2.21973 9.20767 3.59825 9.70003 5.29973 9.70003C7.00121 9.70003 8.37973 9.20767 8.37973 8.60003C8.37973 8.39939 8.37973 7.48067 8.37973 7.28003" stroke="white" stroke-width="0.6" stroke-miterlimit="10" stroke-linecap="round" stroke-linejoin="round" />
		<path d="M2.21973 8.81982C2.21973 9.02046 2.21973 9.93918 2.21973 10.1398C2.21973 10.7475 3.59825 11.2398 5.29973 11.2398C7.00121 11.2398 8.37973 10.7475 8.37973 10.1398C8.37973 9.93918 8.37973 9.02046 8.37973 8.81982" stroke="white" stroke-width="0.6" stroke-miterlimit="10" stroke-linecap="round" stroke-linejoin="round" />
		<path d="M2.21973 10.3599C2.21973 10.5605 2.21973 11.4792 2.21973 11.6799C2.21973 12.2875 3.59825 12.7799 5.29973 12.7799C7.00121 12.7799 8.37973 12.2875 8.37973 11.6799C8.37973 11.4792 8.37973 10.5605 8.37973 10.3599" stroke="white" stroke-width="0.6" stroke-miterlimit="10" stroke-linecap="round" stroke-linejoin="round" />
	</symbol>

	<symbol id="whatsapp" viewBox="0 0 19 19">
		<path d="M18.7774 9.37737C18.7737 10.9842 18.4248 12.4018 17.7198 13.7192C17.0555 14.9623 16.1389 15.9977 14.9848 16.8141C13.9717 17.5303 12.8621 18.0201 11.6487 18.2725C10.3053 18.5508 8.96195 18.5211 7.62972 18.202C6.92464 18.0313 6.24925 17.7715 5.61468 17.4264C5.50706 17.367 5.41429 17.3633 5.29925 17.4004C3.90023 17.8494 2.5012 18.2948 1.10218 18.7401C0.942607 18.792 0.786748 18.8403 0.627178 18.8996C0.515849 18.9405 0.508428 18.8996 0.538115 18.8069C0.701396 18.3282 0.860967 17.8494 1.02425 17.367C1.37308 16.3242 1.7219 15.2815 2.07815 14.2424C2.1264 14.1051 2.05589 14.016 2.00022 13.9196C1.56233 13.1588 1.25062 12.3498 1.05765 11.4963C0.63831 9.65569 0.786748 7.85218 1.49183 6.10432C1.90003 5.09495 2.48265 4.18948 3.22855 3.38792C4.17855 2.3637 5.30296 1.61038 6.60179 1.10569C7.81526 0.634403 9.06956 0.452567 10.361 0.530497C12.1311 0.638114 13.7416 1.22444 15.1555 2.29319C16.985 3.67366 18.1354 5.48831 18.5955 7.74085C18.718 8.31604 18.7625 8.89866 18.7774 9.37737ZM9.74124 2.03343C9.39612 2.01858 8.99163 2.0594 8.58714 2.11878C8.42757 2.14104 8.27171 2.17444 8.11585 2.21526C5.70374 2.82757 3.97073 4.26741 2.95022 6.53479C2.36019 7.84475 2.20062 9.22893 2.42327 10.6465C2.59769 11.7672 3.01331 12.7989 3.66272 13.7303C3.73323 13.8342 3.74437 13.9233 3.70355 14.0383C3.42894 14.8436 3.16175 15.6526 2.89085 16.4616C2.87601 16.5061 2.83148 16.558 2.8723 16.5989C2.91312 16.6434 2.96507 16.5951 3.0096 16.5803C3.8223 16.3205 4.63499 16.0645 5.44026 15.7936C5.62581 15.7305 5.75941 15.7602 5.91898 15.8567C7.74105 16.9514 9.68929 17.2408 11.7414 16.6953C13.3 16.2834 14.584 15.4336 15.6008 14.1793C16.5842 12.9658 17.1334 11.578 17.2448 10.0268C17.3301 8.83558 17.1446 7.67776 16.6696 6.5719C16.0721 5.1803 15.1407 4.06702 13.8826 3.23948C12.6506 2.4305 11.2887 2.01487 9.74124 2.03343Z"/>
		<path d="M5.3103 7.33275C5.32515 6.49779 5.65171 5.81126 6.28999 5.27689C6.47183 5.12474 6.69077 5.06165 6.93198 5.10247C7.03589 5.11732 7.14351 5.13216 7.2437 5.12103C7.49604 5.10247 7.64077 5.24349 7.7187 5.4513C7.9562 6.07474 8.18628 6.70189 8.42007 7.32533C8.4646 7.44408 8.45347 7.55169 8.3978 7.66302C8.25308 7.96361 8.023 8.1974 7.79292 8.43119C7.59253 8.63529 7.5814 8.70208 7.7187 8.95072C8.38296 10.1531 9.29956 11.0882 10.5687 11.656C10.6318 11.682 10.6875 11.7265 10.7468 11.7525C10.9064 11.8304 11.0511 11.823 11.1847 11.6857C11.4445 11.4222 11.6857 11.1402 11.9195 10.8507C12.1013 10.6244 12.1867 10.591 12.4427 10.706C13.0662 10.9954 13.6599 11.3331 14.2648 11.6597C14.4652 11.7673 14.4875 11.9158 14.4578 12.1867C14.3353 13.2888 13.4929 13.7898 12.5318 13.9494C12.2089 14.0013 11.9046 13.9716 11.6003 13.8751C10.7097 13.5931 9.83394 13.2665 9.04722 12.7544C8.31245 12.2757 7.68159 11.6783 7.12866 10.9992C6.59058 10.3349 6.11187 9.63353 5.71479 8.87279C5.49214 8.43861 5.3103 7.76322 5.3103 7.33275Z"/>
	</symbol>

	<symbol id="telegram" viewBox="0 0 20 16">
		<path d="M18.6643 2.02291L16.0343 14.4259C15.8359 15.3013 15.3184 15.519 14.5831 15.1068L10.5759 12.1538L8.64242 14.0135C8.42848 14.2274 8.24945 14.4065 7.83707 14.4065L8.12496 10.3253L15.5519 3.61413C15.8748 3.32623 15.4819 3.1667 15.05 3.45463L5.86848 9.23592L1.91574 7.99874C1.05594 7.73026 1.04043 7.13889 2.09469 6.72655L17.5554 0.770219C18.2712 0.501781 18.8976 0.929672 18.6643 2.02291Z" stroke-width="1.4" stroke-miterlimit="10" stroke-linecap="round" stroke-linejoin="round" />
	</symbol>

	<symbol id="mail" viewBox="0 0 19 19">
		<g clip-path="url(#clip0_1_2977)">
			<path d="M17.327 4.72489C17.292 4.67799 17.2482 4.63845 17.1979 4.60851C17.1476 4.57858 17.092 4.55884 17.0341 4.55044C16.9762 4.54203 16.9172 4.54511 16.8605 4.55951C16.8038 4.5739 16.7505 4.59933 16.7036 4.63434L9.52069 9.9959C9.49499 10.0152 9.46374 10.0256 9.43163 10.0256C9.39951 10.0256 9.36826 10.0152 9.34256 9.9959L2.30069 4.61059C2.2542 4.57511 2.20117 4.54914 2.14465 4.53416C2.08812 4.51917 2.02919 4.51547 1.97123 4.52325C1.91327 4.53104 1.85741 4.55017 1.80684 4.57954C1.75627 4.60892 1.71199 4.64797 1.67651 4.69446C1.64103 4.74095 1.61506 4.79397 1.60007 4.8505C1.58509 4.90703 1.58138 4.96596 1.58917 5.02392C1.59696 5.08188 1.61609 5.13774 1.64546 5.18831C1.67484 5.23887 1.71389 5.28316 1.76038 5.31864L7.29709 9.55356L1.82124 13.6801C1.77406 13.7153 1.73428 13.7594 1.70416 13.81C1.67405 13.8606 1.65418 13.9166 1.6457 13.9748C1.63723 14.033 1.6403 14.0924 1.65476 14.1494C1.66921 14.2065 1.69476 14.2601 1.72995 14.3073C1.76513 14.3544 1.80926 14.3942 1.85982 14.4243C1.91038 14.4545 1.96638 14.4743 2.02461 14.4828C2.08285 14.4913 2.14219 14.4882 2.19923 14.4737C2.25628 14.4593 2.30992 14.4337 2.3571 14.3986L8.03186 10.1147L8.80077 10.7084C8.98005 10.8456 9.19916 10.9207 9.42494 10.9224C9.65072 10.924 9.87087 10.852 10.0521 10.7173L10.8596 10.1147L16.6012 14.3986C16.648 14.4336 16.7014 14.459 16.7581 14.4734C16.8148 14.4877 16.8737 14.4908 16.9316 14.4824C16.9895 14.474 17.0452 14.4543 17.0955 14.4243C17.1457 14.3944 17.1896 14.3549 17.2246 14.308C17.2596 14.2611 17.285 14.2078 17.2994 14.1511C17.3138 14.0944 17.3168 14.0354 17.3084 13.9775C17.3 13.9197 17.2803 13.864 17.2504 13.8137C17.2205 13.7634 17.1809 13.7196 17.134 13.6846L11.6033 9.55208L17.2365 5.34387C17.3299 5.27332 17.3918 5.1688 17.4087 5.05296C17.4257 4.93711 17.3963 4.81925 17.327 4.72489Z"/>
			<path d="M16.7734 2.82031H2.22656C1.63604 2.82031 1.06971 3.0549 0.652145 3.47246C0.234584 3.89002 0 4.45635 0 5.04688L0 13.9531C0 14.5436 0.234584 15.11 0.652145 15.5275C1.06971 15.9451 1.63604 16.1797 2.22656 16.1797H16.7734C17.364 16.1797 17.9303 15.9451 18.3479 15.5275C18.7654 15.11 19 14.5436 19 13.9531V5.04688C19 4.45635 18.7654 3.89002 18.3479 3.47246C17.9303 3.0549 17.364 2.82031 16.7734 2.82031ZM18.1094 13.9531C18.1094 14.3074 17.9686 14.6472 17.7181 14.8978C17.4676 15.1483 17.1278 15.2891 16.7734 15.2891H2.22656C1.87225 15.2891 1.53245 15.1483 1.28191 14.8978C1.03138 14.6472 0.890625 14.3074 0.890625 13.9531V5.04688C0.890625 4.69256 1.03138 4.35276 1.28191 4.10222C1.53245 3.85169 1.87225 3.71094 2.22656 3.71094H16.7734C17.1278 3.71094 17.4676 3.85169 17.7181 4.10222C17.9686 4.35276 18.1094 4.69256 18.1094 5.04688V13.9531Z" stroke-width="0.5" />
		</g>
		<defs>
			<clipPath id="clip0_1_2977">
				<rect width="19" height="19" fill="white" />
			</clipPath>
		</defs>
	</symbol>

	<symbol id="filters-reset" viewBox="0 0 13 13">
		<path d="M1.94975 11.8492L11.8492 1.94967M11.8492 11.8492L1.94975 1.94967" stroke-width="2" stroke-linecap="round"/>
	</symbol>

	<symbol id="favorite" viewBox="0 0 24 24">
		<path d="M20.84 4.61012C20.3292 4.09912 19.7228 3.69376 19.0554 3.4172C18.3879 3.14064 17.6725 2.99829 16.95 2.99829C16.2275 2.99829 15.5121 3.14064 14.8446 3.4172C14.1772 3.69376 13.5708 4.09912 13.06 4.61012L12 5.67012L10.94 4.61012C9.9083 3.57842 8.50903 2.99883 7.05 2.99883C5.59096 2.99883 4.19169 3.57842 3.16 4.61012C2.1283 5.64181 1.54871 7.04108 1.54871 8.50012C1.54871 9.95915 2.1283 11.3584 3.16 12.3901L4.22 13.4501L12 21.2301L19.78 13.4501L20.84 12.3901C21.351 11.8794 21.7563 11.2729 22.0329 10.6055C22.3095 9.93801 22.4518 9.2226 22.4518 8.50012C22.4518 7.77763 22.3095 7.06222 22.0329 6.39476C21.7563 5.7273 21.351 5.12087 20.84 4.61012V4.61012Z" stroke-width="2" stroke-linecap="round" stroke-linejoin="round"/>
	</symbol>

	<symbol id="money-tour-card" viewBox="0 0 22 22">
		<path d="M14.2267 6.48253C16.7216 6.48253 18.744 5.76021 18.744 4.86919C18.744 3.97817 16.7216 3.25586 14.2267 3.25586C11.7319 3.25586 9.70938 3.97817 9.70938 4.86919C9.70938 5.76021 11.7319 6.48253 14.2267 6.48253Z" stroke-width="0.6" stroke-miterlimit="10" stroke-linecap="round" stroke-linejoin="round" />
		<path d="M9.70938 5.19214C9.70938 5.48641 9.70938 6.83387 9.70938 7.12814C9.70938 8.01902 11.7312 8.74147 14.2267 8.74147C16.7222 8.74147 18.744 8.01902 18.744 7.12814C18.744 6.83387 18.744 5.48641 18.744 5.19214" stroke-width="0.6" stroke-miterlimit="10" stroke-linecap="round" stroke-linejoin="round" />
		<path d="M12.1455 10.819C12.7682 10.9345 13.4762 11 14.2267 11C16.7222 11 18.744 10.2776 18.744 9.38668C18.744 9.09241 18.744 7.74496 18.744 7.45068" stroke-width="0.6" stroke-miterlimit="10" stroke-linecap="round" stroke-linejoin="round" />
		<path d="M9.70938 7.45068C9.70938 7.74496 9.70938 8.82847 9.70938 8.82847" stroke-width="0.6" stroke-miterlimit="10" stroke-linecap="round" stroke-linejoin="round" />
		<path d="M12.2987 13.1046C12.8834 13.2034 13.5368 13.2586 14.2267 13.2586C16.7222 13.2586 18.744 12.5364 18.744 11.6452C18.744 11.351 18.744 10.0035 18.744 9.70923" stroke-width="0.6" stroke-miterlimit="10" stroke-linecap="round" stroke-linejoin="round" />
		<path d="M12.2739 15.3592C12.8647 15.4606 13.5271 15.5174 14.2267 15.5174C16.7222 15.5174 18.744 14.7952 18.744 13.904C18.744 13.6097 18.744 12.2623 18.744 11.968" stroke-width="0.6" stroke-miterlimit="10" stroke-linecap="round" stroke-linejoin="round" />
		<path d="M7.77329 11.9679C10.2681 11.9679 12.2906 11.2456 12.2906 10.3545C12.2906 9.46352 10.2681 8.74121 7.77329 8.74121C5.27844 8.74121 3.25596 9.46352 3.25596 10.3545C3.25596 11.2456 5.27844 11.9679 7.77329 11.9679Z" stroke-width="0.6" stroke-miterlimit="10" stroke-linecap="round" stroke-linejoin="round" />
		<path d="M3.25596 10.6775C3.25596 10.9718 3.25596 12.3192 3.25596 12.6135C3.25596 13.5047 5.27779 14.2268 7.77329 14.2268C10.2688 14.2268 12.2906 13.5047 12.2906 12.6135C12.2906 12.3192 12.2906 10.9718 12.2906 10.6775" stroke-width="0.6" stroke-miterlimit="10" stroke-linecap="round" stroke-linejoin="round" />
		<path d="M3.25596 12.936C3.25596 13.2303 3.25596 14.5778 3.25596 14.872C3.25596 15.7632 5.27779 16.4854 7.77329 16.4854C10.2688 16.4854 12.2906 15.7632 12.2906 14.872C12.2906 14.5778 12.2906 13.2303 12.2906 12.936" stroke-width="0.6" stroke-miterlimit="10" stroke-linecap="round" stroke-linejoin="round" />
		<path d="M3.25596 15.1946C3.25596 15.4889 3.25596 16.8363 3.25596 17.1306C3.25596 18.0218 5.27779 18.7439 7.77329 18.7439C10.2688 18.7439 12.2906 18.0218 12.2906 17.1306C12.2906 16.8363 12.2906 15.4889 12.2906 15.1946" stroke-width="0.6" stroke-miterlimit="10" stroke-linecap="round" stroke-linejoin="round" />
	</symbol>

	<symbol id="main-arrow-prev" viewBox="0 0 5 8">
		<path d="M4 7L1 4L4 1" stroke-linecap="round"/>
	</symbol>

	<symbol id="main-arrow-next" viewBox="0 0 5 8">
		<path d="M1 7L4 4L1 1" stroke-linecap="round"/>
	</symbol>
</svg>